<svg width="551" height="661" viewBox="0 0 551 661" fill="none" xmlns="http://www.w3.org/2000/svg">
<path d="M275.667 407.627C309.703 407.627 342.344 394.105 366.412 370.039C390.48 345.971 404 313.331 404 279.293C404 245.256 390.479 212.616 366.412 188.548C342.344 164.48 309.704 150.96 275.667 150.96C241.629 150.96 208.989 164.481 184.921 188.548C160.853 212.616 147.333 245.256 147.333 279.293C147.37 313.315 160.907 345.933 184.964 369.996C209.021 394.053 241.641 407.584 275.667 407.627V407.627ZM275.667 174.293C303.516 174.293 330.224 185.356 349.912 205.043C369.605 224.736 380.667 251.444 380.667 279.293C380.667 307.137 369.604 333.845 349.912 353.539C330.224 373.232 303.516 384.293 275.667 384.293C247.817 384.293 221.109 373.231 201.421 353.539C181.728 333.845 170.667 307.137 170.667 279.293C170.698 251.455 181.771 224.767 201.453 205.08C221.141 185.397 247.828 174.325 275.667 174.293V174.293ZM81.0133 470.333L267.413 656.733C269.601 658.926 272.57 660.155 275.663 660.155C278.757 660.155 281.726 658.926 283.913 656.733L470.313 470.32V470.325C504.496 436.164 529.084 393.601 541.6 346.924C554.11 300.241 554.11 251.091 541.6 204.417C529.084 157.735 504.496 115.172 470.313 81.0159C426.407 37.1146 368.949 9.34922 307.273 2.21855C245.596 -4.91172 183.32 9.01028 130.553 41.7346C77.788 74.4532 37.636 124.052 16.6106 182.468C-4.41604 240.884 -5.07735 304.697 14.7304 363.535C28.1677 403.821 50.861 440.399 80.9957 470.327L81.0133 470.333ZM97.508 97.52V97.5148C128.768 66.1921 167.732 43.6508 210.472 32.1655C253.212 20.6863 298.227 20.6603 340.977 32.103C383.727 43.5404 422.712 66.0403 454.008 97.3323C485.3 128.63 507.8 167.614 519.237 210.363C530.68 253.118 530.654 298.128 519.17 340.868C507.685 383.608 485.148 422.571 453.82 453.832L275.66 631.992L97.5003 453.832C66.2136 422.567 43.7136 383.614 32.2603 340.89C20.8072 298.166 20.8072 253.182 32.2603 210.458C43.7133 167.734 66.2136 128.78 97.5003 97.515L97.508 97.52Z" fill="black"/>
</svg>
