<svg width="603" height="701" viewBox="0 0 603 701" fill="none" xmlns="http://www.w3.org/2000/svg">
<path d="M428.467 79.1666C421.566 73.4322 420.623 63.1933 426.357 56.292C432.092 49.3906 442.331 48.4482 449.232 54.1826C453.383 57.6357 455.336 62.719 455.018 67.724C454.867 70.0989 454.211 72.448 452.998 74.6094C452.524 75.4584 451.992 76.2865 451.346 77.0573C445.612 83.9532 435.368 84.901 428.466 79.1666H428.467ZM480.144 138.953C481.014 141.375 483.061 143.188 485.571 143.74C486.102 143.854 486.644 143.917 487.18 143.917C489.165 143.917 491.087 143.13 492.503 141.688L495.696 138.422L479.936 138.474C479.993 138.63 480.087 138.792 480.144 138.953L480.144 138.953ZM364.775 154.141L369.65 170.781C370.811 174.74 374.957 177.005 378.915 175.849L395.555 170.974C399.514 169.813 401.779 165.667 400.623 161.709L395.748 145.068C394.586 141.11 390.441 138.845 386.482 140.001L369.842 144.876C365.884 146.032 363.618 150.183 364.775 154.141ZM310.941 95.048C309.551 92.6938 309.561 89.7616 310.973 87.4125C328.942 57.4232 338.833 31.0272 341.218 6.73516C341.416 4.68823 342.457 2.80809 344.093 1.55289C345.718 0.297681 347.796 -0.223105 349.832 0.0944949C357.796 1.37575 365.77 3.09969 373.546 5.24036C377.061 6.20391 379.358 9.5633 378.999 13.183C376.343 39.8284 365.545 66.8857 345.983 95.8857C344.592 97.9534 342.264 99.1774 339.79 99.1774C339.608 99.1774 339.42 99.1722 339.228 99.1566C331.978 98.6149 324.701 98.4691 317.644 98.7191C314.706 98.8597 312.331 97.4066 310.941 95.0472L310.941 95.048ZM330.291 83.7458C332.181 83.7979 334.061 83.8708 335.947 83.9802C351.083 60.7669 360.087 39.0949 363.327 18.0215C360.587 17.3601 357.822 16.7507 355.051 16.2038C351.78 37.2145 343.619 59.4691 330.291 83.7451L330.291 83.7458ZM274.269 166.027L284.743 172.189C288.295 174.277 292.874 173.095 294.967 169.538L301.129 159.064C303.217 155.511 302.035 150.933 298.478 148.84L288.004 142.678C284.452 140.59 279.873 141.772 277.78 145.329L271.618 155.803C269.53 159.36 270.717 163.933 274.269 166.027ZM475.109 122.642C474.078 124.907 474.177 127.574 475.573 129.746C475.844 130.163 476.042 130.595 476.292 131.012L503.026 130.928C505.849 128.032 508.547 125.298 511.271 122.527L475.109 122.642ZM539.984 62.8392C537.5 61.61 534.546 61.8496 532.286 63.4642C530.494 64.7558 528.765 66.1256 527.026 67.4902L548.146 67.4225C545.515 65.7922 542.802 64.2454 539.984 62.8391L539.984 62.8392ZM557.405 77.6565C557.41 76.6825 557.181 75.7502 556.832 74.8701L518.072 74.9899C515.124 77.641 512.218 80.4743 509.312 83.3858L554.76 83.2451C556.395 81.8441 557.395 79.8285 557.406 77.6566L557.405 77.6565ZM488.041 106.76C485.729 109.474 483.364 112.271 480.948 115.151L518.724 115.031C521.604 112.156 524.468 109.334 527.291 106.636L488.041 106.76ZM524.292 99.1824L535.464 99.1459C538.724 96.2136 542.011 93.3959 545.276 90.7396L502.115 90.8751C499.615 93.5677 497.084 96.3699 494.526 99.2709L504.558 99.2397L524.292 99.1824ZM54.1052 110.021L10.9439 107.13C13.9908 110.021 16.9335 113.036 19.8188 116.115L60.8975 118.865C58.7049 115.865 56.4391 112.917 54.1058 110.021H54.1052ZM77.8706 145.808C77.4123 144.953 76.9018 144.12 76.4279 143.271L39.8399 140.823C41.8555 143.709 43.793 146.636 45.6577 149.604L78.231 151.787C78.9081 149.855 78.8924 147.709 77.8716 145.808H77.8706ZM351.577 260.824C357.312 253.923 356.369 243.684 349.468 237.949C342.567 232.215 332.328 233.157 326.593 240.058C320.859 246.959 321.802 257.198 328.703 262.933C335.598 268.667 345.843 267.719 351.577 260.824ZM66.3639 126.717L26.9266 124.076C29.3902 126.972 31.7703 129.93 34.0828 132.946L71.9429 135.482C70.1511 132.524 68.2918 129.602 66.3647 126.717L66.3639 126.717ZM318.417 330.917L308.459 377.032L306.797 384.724L290.063 462.23C278.808 498.047 241.369 519.688 201.188 515.167L159.98 645.984C165.35 655.995 172.532 664.744 181.335 671.984L197.299 685.125C200.538 687.807 201.424 692.417 199.424 696.094C197.861 698.969 194.861 700.656 191.716 700.656C190.841 700.656 189.955 700.526 189.085 700.25L62.9493 660.515C58.9805 659.276 56.4128 655.359 56.8711 651.198C57.3294 647.036 60.694 643.76 64.8711 643.416L85.5111 641.797C96.8549 640.916 107.756 637.859 117.912 632.724L159.126 501.912C123.568 482.609 105.319 443.417 116.402 408.234L168.672 283.729C172.594 274.38 183.427 269.812 193.844 273.104L303.891 307.771C314.313 311.062 320.563 321.015 318.418 330.916L318.417 330.917ZM288.444 399.053C287.621 399.329 286.897 399.714 286.038 399.944C281.491 401.167 276.59 401.73 271.47 401.73C249.678 401.73 224.011 391.563 204.954 379.423C204.391 379.064 203.782 378.725 203.23 378.361C181.448 364.038 160.568 372.725 149.76 379.423C145.838 381.85 143.276 383.965 142.458 384.673L130.396 413.381C121.208 442.641 138.666 476.417 171.25 491.288C174.683 492.856 176.407 496.736 175.271 500.33L132.026 637.61C130.916 641.151 128.375 644.156 125.062 645.844C116.005 650.474 106.442 653.688 96.5209 655.438L164.485 676.854C157.36 669.723 151.36 661.608 146.594 652.624C144.855 649.338 144.5 645.426 145.615 641.89L188.86 504.61C189.996 501.021 193.626 498.808 197.334 499.511C232.558 506.006 266.22 488.324 275.641 458.418L288.444 399.053ZM303.819 327.761C304.308 325.516 302.319 322.943 299.392 322.016L189.356 287.349C186.413 286.438 183.319 287.402 182.434 289.516L152.262 361.344C168.464 354.506 190.179 351.907 211.439 365.875C219.892 371.433 228.871 375.953 237.715 379.417C254.59 386.021 270.966 388.552 282.158 385.516C286.668 384.302 290.074 382.286 292.507 379.417C292.59 379.318 292.668 379.208 292.746 379.109L303.819 327.761ZM50.3386 157.388C51.2553 158.992 52.1979 160.58 53.0678 162.2C54.1199 164.153 55.9844 165.539 58.1563 165.986C58.6511 166.085 59.1511 166.138 59.6459 166.138C61.3282 166.138 62.9793 165.565 64.3178 164.492L71.4115 158.799L50.3386 157.388ZM39.1146 93.1369L2.07858 90.6577C1.33899 91.814 0.807746 93.0848 0.781706 94.4806C0.755664 96.1889 1.45878 97.741 2.48477 99.0744L47.4488 102.085C44.7509 99.017 41.9592 96.0484 39.1154 93.1369H39.1146ZM150.38 88.6005C148.698 87.4807 147.547 85.7256 147.182 83.7464C146.817 81.7568 147.271 79.7152 148.437 78.0641C153.39 71.0953 158.765 64.3041 164.421 57.8614C166.895 55.0489 171.078 54.5021 174.187 56.5906C196.542 71.5693 215.296 94.5279 231.52 126.768C232.671 129.054 232.572 131.768 231.26 133.961C230.343 135.492 229.671 136.929 229.036 138.252C226.708 143.127 223.817 149.195 214.057 151.982C213.375 152.174 212.687 152.268 212.005 152.268C209.38 152.268 206.88 150.877 205.526 148.513C190.11 121.606 174.646 104.81 150.38 88.6009L150.38 88.6005ZM165.088 80.6265C185.593 95.3612 200.52 111.574 214.391 134.189C214.734 133.554 215.104 132.772 215.562 131.819C215.839 131.241 216.12 130.648 216.422 130.038C203.187 104.612 188.349 85.8089 171.266 72.8409C169.157 75.393 167.094 77.992 165.089 80.6273L165.088 80.6265ZM602.515 651.2C602.973 655.356 600.405 659.278 596.421 660.528L470.296 700.263C469.426 700.534 468.54 700.664 467.67 700.664C464.53 700.664 461.525 698.966 459.957 696.091C457.957 692.414 458.847 687.815 462.071 685.148L478.045 671.992C486.847 664.752 494.029 656.008 499.405 645.992L458.191 515.174C418.014 519.747 380.577 498.092 369.494 462.909L352.603 384.769L350.932 377.024L340.968 330.926C338.832 321.014 345.088 311.076 355.515 307.79L465.545 273.123C475.993 269.826 486.8 274.404 490.717 283.748L542.759 407.603C554.066 443.405 535.826 482.629 500.269 501.925L541.483 632.737C551.649 637.873 562.54 640.925 573.889 641.81L594.493 643.43C598.686 643.763 602.056 647.034 602.514 651.201L602.515 651.2ZM377.235 385.533C388.391 388.533 404.761 386.012 421.636 379.424C430.495 375.965 439.485 371.445 447.948 365.882C469.213 351.898 490.937 354.513 507.151 361.362L476.948 289.518C476.057 287.398 472.943 286.434 470.036 287.351L360 322.018C357.068 322.94 355.084 325.518 355.568 327.763L366.662 379.143C366.735 379.236 366.808 379.33 366.886 379.419C369.308 382.293 372.719 384.314 377.235 385.533L377.235 385.533ZM562.861 655.44C552.945 653.69 543.377 650.476 534.315 645.846C531.018 644.169 528.481 641.164 527.367 637.612L484.112 500.332C482.982 496.738 484.711 492.858 488.138 491.29C520.717 476.421 538.179 442.65 528.753 412.738L516.972 384.717C516.211 384.05 513.628 381.899 509.638 379.425C498.836 372.727 477.961 364.04 456.154 378.363C455.602 378.722 454.993 379.066 454.43 379.425C435.384 391.566 409.712 401.732 387.92 401.732C382.81 401.732 377.909 401.169 373.357 399.945C372.508 399.716 371.784 399.336 370.966 399.06L383.93 459.081C393.175 488.336 426.847 506.008 462.06 499.508C465.691 498.8 469.394 501.008 470.534 504.607L513.774 641.874C514.889 645.405 514.54 649.311 512.811 652.598C508.04 661.598 502.04 669.718 494.904 676.848L562.861 655.44ZM24.7679 79.6132C22.0543 77.2746 18.0387 77.2017 15.2263 79.4465L9.92419 83.7017L30.8455 85.1028C28.8403 83.2434 26.8299 81.3945 24.7674 79.6132H24.7679ZM226.528 180.301C220.049 175.249 210.7 176.41 205.648 182.89C200.596 189.369 201.757 198.718 208.236 203.77C214.716 208.822 224.064 207.66 229.116 201.181C234.169 194.702 233.012 185.353 226.528 180.301ZM263.507 72.3692C269.668 64.9577 268.652 53.9572 261.241 47.7958C253.83 41.6344 242.829 42.65 236.668 50.0614C230.506 57.4729 231.522 68.4734 238.933 74.6348C246.35 80.7962 257.349 79.7806 263.507 72.3692Z" fill="black"/>
</svg>
