<svg width="717" height="717" viewBox="0 0 717 717" fill="none" xmlns="http://www.w3.org/2000/svg">
<path d="M700.893 254.893H16.44C7.85147 254.893 0.888 247.925 0.888 239.336C0.888 230.747 7.8516 223.779 16.44 223.779H700.893C709.482 223.779 716.445 230.747 716.445 239.336C716.445 247.925 709.482 254.893 700.893 254.893Z" fill="black"/>
<path d="M142.28 180.453H113.739C103.572 180.334 93.8587 176.235 86.676 169.042C79.4937 161.844 75.4156 152.121 75.3167 141.954V39.4432C75.3167 29.2088 79.3478 19.3912 86.5406 12.1099C93.7333 4.82867 103.505 0.677606 113.738 0.557739H142.285H142.279C152.529 0.656698 162.321 4.80254 169.53 12.0837C176.739 19.3649 180.785 29.1984 180.78 39.4437V141.954C180.681 152.137 176.593 161.872 169.395 169.069C162.197 176.267 152.463 180.355 142.28 180.455L142.28 180.453ZM113.739 31.6667C111.718 31.6615 109.78 32.4948 108.395 33.9688C107.009 35.4428 106.296 37.4272 106.426 39.4428V141.953C106.405 143.907 107.166 145.787 108.541 147.177C109.916 148.563 111.785 149.344 113.739 149.344H142.285H142.28C144.249 149.365 146.139 148.594 147.53 147.203C148.921 145.813 149.691 143.922 149.671 141.953V39.4428C149.801 37.4116 149.077 35.4168 147.676 33.9428C146.275 32.4636 144.317 31.6407 142.28 31.6668L113.739 31.6667Z" fill="black"/>
<path d="M596.12 180.453H567.579C557.334 180.459 547.5 176.412 540.215 169.203C532.934 161.995 528.793 152.203 528.689 141.953V39.442C528.793 29.1972 532.934 19.406 540.215 12.1967C547.501 4.9884 557.335 0.941467 567.579 0.941467H596.125H596.12C606.438 0.941467 616.328 5.0404 623.62 12.3321C630.912 19.6291 635.011 29.5201 635.011 39.8321V141.952C634.907 152.202 630.766 161.993 623.485 169.203C616.204 176.411 606.37 180.458 596.121 180.453L596.12 180.453ZM567.579 31.6667C563.282 31.6667 559.803 35.1511 559.803 39.4427V141.953C560.006 146.099 563.428 149.349 567.579 149.344H596.125H596.12C600.271 149.349 603.693 146.099 603.901 141.953V39.4427C603.901 37.3801 603.078 35.4011 601.62 33.9427C600.162 32.4843 598.188 31.6667 596.12 31.6667H567.579Z" fill="black"/>
<path d="M659.36 716.107H57.9867C42.8467 716.107 28.3253 710.096 17.6173 699.388C6.90934 688.68 0.898682 674.159 0.898682 659.019V131.992C0.919515 116.867 6.94028 102.361 17.644 91.6747C28.3523 80.9872 42.8573 74.9813 57.988 74.9813H90.8894C95.0144 74.9813 98.9675 76.622 101.884 79.5387C104.806 82.4553 106.441 86.4084 106.441 90.5387V141.951V141.945C106.421 143.899 107.181 145.779 108.556 147.169C109.931 148.555 111.801 149.336 113.754 149.336H142.301H142.295C144.264 149.357 146.155 148.586 147.545 147.195C148.936 145.805 149.707 143.914 149.686 141.945V90.5388C149.686 81.945 156.65 74.9814 165.243 74.9814H544.643C548.768 74.9814 552.721 76.6221 555.638 79.5388C558.56 82.4554 560.195 86.4085 560.195 90.5388V141.951V141.946C560.404 146.091 563.826 149.341 567.977 149.336H596.523H596.518C600.669 149.341 604.091 146.091 604.294 141.946V90.5389C604.294 81.9452 611.263 74.9816 619.852 74.9816H660.143C675.133 75.1847 689.446 81.2785 699.982 91.9456C710.518 102.612 716.435 116.998 716.451 131.992V659.019C716.451 674.159 710.441 688.68 699.733 699.388C689.024 710.096 674.503 716.107 659.363 716.107L659.36 716.107ZM57.9867 106.093C51.1064 106.093 44.5133 108.823 39.6427 113.677C34.7729 118.531 32.0281 125.119 32.0072 131.994V659.021C32.028 665.906 34.7728 672.499 39.6375 677.37C44.5072 682.235 51.1011 684.979 57.9868 685H659.36C666.246 684.979 672.839 682.235 677.709 677.37C682.574 672.5 685.319 665.906 685.34 659.021V131.994C685.319 125.119 682.574 118.53 677.704 113.677C672.835 108.823 666.241 106.093 659.36 106.093H634.626V141.948C634.527 152.198 630.381 161.989 623.1 169.199C615.818 176.407 605.985 180.454 595.74 180.449H567.584C557.339 180.454 547.505 176.407 540.22 169.199C532.938 161.99 528.798 152.199 528.694 141.948V106.093H180.787V141.948C180.688 152.13 176.599 161.865 169.401 169.063C162.204 176.261 152.469 180.349 142.287 180.448H113.745C103.579 180.328 93.8655 176.229 86.6828 169.037C79.5005 161.839 75.4224 152.115 75.3235 141.949V106.094L57.9867 106.093Z" fill="black"/>
<path d="M358.667 599.44C313.479 599.44 236.557 511.628 220.453 492.653C195.199 467.241 184.631 430.716 192.412 395.741C200.198 360.768 225.267 332.173 258.923 319.877C292.573 307.586 330.168 313.284 358.668 334.997C376.876 321.169 399.116 313.685 421.98 313.685C449.803 313.618 476.511 324.649 496.177 344.331C515.672 363.94 526.672 390.429 526.803 418.076C526.933 445.727 516.183 472.316 496.881 492.107C480.855 511.476 404.089 599.44 358.668 599.44H358.667ZM295.355 344.947C275.709 344.926 256.86 352.723 242.969 366.613C229.079 380.504 221.281 399.353 221.303 418.999C221.329 438.649 229.167 457.477 243.089 471.337L244.022 472.27C283.224 518.63 338.215 568.327 358.667 568.327C379.276 568.327 434.188 518.16 473.235 471.65L474.089 470.717C487.964 456.843 495.756 438.029 495.756 418.411C495.756 398.792 487.964 379.979 474.089 366.104C460.272 352.229 441.485 344.443 421.901 344.484C402.265 344.463 383.442 352.307 369.636 366.26L358.667 377.463L347.62 366.494C333.745 352.666 314.943 344.921 295.355 344.948L295.355 344.947Z" fill="black"/>
</svg>
