<svg width="564" height="673" viewBox="0 0 564 673" fill="none" xmlns="http://www.w3.org/2000/svg">
<path fill-rule="evenodd" clip-rule="evenodd" d="M352.787 588.827H480.787V557.608H352.787V588.827ZM172.76 189.347C172.76 249.601 221.781 298.617 282.031 298.617C342.276 298.617 391.296 249.601 391.296 189.347V179.576C348.957 173.617 322.14 144.42 308.791 125.196C291.687 138.274 271.431 149.499 248.192 158.633C217.604 170.659 189.14 176.311 172.76 178.827V189.347ZM157.151 165.081V165.092V165.081ZM172.76 147.139C211.281 140.503 304.52 117.185 333.88 44.6694C318.437 36.3152 300.781 31.5548 282.031 31.5548C221.78 31.5548 172.76 80.5708 172.76 140.825V147.139ZM359.52 63.888C352.697 78.3934 343.556 91.836 332.16 104.081C340.79 117.54 360.196 141.467 391.296 147.8V140.826C391.296 110.842 379.145 83.6487 359.52 63.8887V63.888ZM141.547 189.347V140.825C141.547 63.356 204.573 0.332031 282.04 0.332031C359.499 0.332031 422.533 63.3534 422.533 140.825V189.347C422.533 229.8 405.325 266.284 377.872 291.94C361.648 307.107 341.841 318.471 319.867 324.623C307.825 327.992 295.148 329.836 282.044 329.836C268.935 329.836 256.263 327.993 244.216 324.623C222.243 318.472 202.44 307.107 186.211 291.945C158.763 266.284 141.555 229.8 141.555 189.347H141.547ZM562.907 495.613L563.297 620.78C563.381 648.373 541.089 670.801 513.505 670.889L51.4519 672.342H51.2905C23.7798 672.342 1.43579 650.082 1.34779 622.545L0.951961 497.378C0.884253 476.373 12.2593 456.998 30.6293 446.816L94.7226 411.289V446.982L45.764 474.122C37.3473 478.784 32.1386 487.664 32.1706 497.284L32.5665 622.445C32.5977 632.742 41.0039 641.122 51.2905 641.122L266.437 640.445V439.685L168.104 495.081C163.614 497.613 158.875 498.764 154.26 498.764C139.484 498.764 125.948 486.936 125.948 470.441V342.217C125.948 325.733 139.478 313.9 154.26 313.9C158.874 313.9 163.614 315.056 168.104 317.577L282.046 381.774L395.984 317.577C400.473 315.056 405.213 313.9 409.828 313.9C424.614 313.9 438.145 325.733 438.145 342.217V470.441C438.145 486.936 424.614 498.764 409.828 498.764C405.213 498.764 400.474 497.613 395.984 495.081L297.656 439.685V640.352L513.402 639.67C518.408 639.659 523.106 637.701 526.637 634.144C530.158 630.602 532.095 625.883 532.08 620.883L531.689 495.717C531.658 486.097 526.392 477.253 517.944 472.643L469.36 446.107V410.539L532.912 445.242C551.344 455.315 562.838 474.611 562.906 495.617L562.907 495.613Z" fill="black"/>
</svg>
