<svg width="748" height="747" viewBox="0 0 748 747" fill="none" xmlns="http://www.w3.org/2000/svg">
<path d="M111.16 296.84C111.217 301.09 113.009 305.132 116.129 308.017L208.222 393.553H208.217C210.394 395.532 213.217 396.642 216.16 396.668C219.102 396.662 221.941 395.553 224.102 393.553L316.196 308.006C319.331 305.137 321.128 301.095 321.159 296.845C321.19 292.595 319.451 288.527 316.357 285.611L281.414 252.195V252.2C276.43 247.543 269.857 244.971 263.034 245.002H169.285C162.467 244.971 155.894 247.543 150.916 252.2L115.957 285.621C112.884 288.543 111.15 292.6 111.16 296.84L111.16 296.84ZM256.04 290.418L248.821 268.335H263.04C263.847 268.304 264.644 268.559 265.29 269.059L294.144 296.653L241.858 345.215L255.998 303.179V303.185C257.321 299.034 257.336 294.581 256.039 290.424L256.04 290.418ZM208.045 268.335H224.28L233.556 296.726L216.16 348.419L198.769 296.726L208.045 268.335ZM167.045 269.049H167.05C167.686 268.554 168.478 268.304 169.285 268.335H183.498L176.285 290.403C174.988 294.57 174.998 299.034 176.321 303.19L190.461 345.217L138.174 296.654L167.045 269.049Z" fill="black"/>
<path d="M513.667 280C456.557 279.964 401.432 300.964 358.813 338.989C365.141 343.708 371.225 348.724 377.059 354.036C416.845 319.896 467.965 301.88 520.365 303.525C572.761 305.166 622.652 326.353 660.219 362.916C697.787 399.484 720.312 448.776 723.375 501.103C726.437 553.441 709.812 605.024 676.765 645.716C643.719 686.409 596.64 713.273 544.792 721.013C492.943 728.758 440.073 716.826 396.579 687.56C356.975 660.7 327.584 621.268 313.147 575.643C296.959 523.336 301.803 466.779 326.641 417.976C327.11 417.065 332.381 408.054 332.178 407.861V407.867C326.438 402.45 320.334 397.44 313.902 392.867C291.896 429.184 280.287 470.851 280.334 513.315C280.427 575.169 305.042 634.46 348.782 678.195C392.516 721.935 451.812 746.549 513.662 746.637C554.635 746.658 594.886 735.893 630.375 715.419C665.864 694.945 695.339 665.487 715.828 630.007C736.323 594.528 747.11 554.277 747.11 513.309C747.11 472.336 736.323 432.085 715.828 396.612C695.339 361.133 665.864 331.675 630.375 311.2C594.886 290.727 554.635 279.955 513.662 279.976L513.667 280Z" fill="black"/>
<path d="M392.453 655.133C428.349 604.373 440.573 540.587 425.984 480.16C411.4 419.728 371.421 368.54 316.328 339.747L298.083 356.689V356.695C349.004 380.601 386.905 425.607 401.801 479.851C416.697 534.096 407.098 592.143 375.525 638.704C380.822 644.532 386.473 650.022 392.452 655.141L392.453 655.133Z" fill="black"/>
<path d="M326.347 688.547C282.18 719.421 227.092 730.364 174.48 718.713C121.865 707.057 76.5533 673.875 49.5533 627.24C22.5586 580.6 16.3559 524.781 32.4546 473.36C48.5533 421.933 85.4813 379.615 134.252 356.693L116.007 339.751C62.8239 367.563 23.6319 416.272 7.84528 474.177C-7.94672 532.079 1.10048 593.943 32.8093 644.897C64.5119 695.856 116.012 731.304 174.929 742.731C233.851 754.153 294.861 740.512 343.316 705.095C337.41 699.839 331.748 694.324 326.343 688.548L326.347 688.547Z" fill="black"/>
<path d="M37.4426 115.412L105.12 116.672L105.333 116.667C108.464 116.667 111.464 115.407 113.656 113.172C115.854 110.938 117.057 107.917 117 104.787L115.74 37.1096C115.568 27.8388 111.99 18.9536 105.688 12.1456C99.3855 5.34346 90.8023 1.08826 81.573 0.202923C70.849 -0.864784 60.1356 2.30706 51.7236 9.04146C43.3122 15.7759 37.869 25.5308 36.557 36.2295C25.8643 37.5368 16.1036 42.9795 9.36896 51.3908C2.63976 59.8075 -0.532109 70.5215 0.530425 81.2401C1.42105 90.4745 5.67109 99.0575 12.4783 105.355C19.2804 111.657 28.1663 115.235 37.4423 115.412L37.4426 115.412ZM28.4322 64.9907C31.8281 61.298 36.6197 59.2095 41.6353 59.2459C44.3697 59.4177 47.1145 59.4125 49.8489 59.225C52.2864 58.85 54.5416 57.699 56.2708 55.9386C58.5052 53.699 59.7396 50.6469 59.6874 47.4856L59.5833 41.6574C59.4687 36.5168 61.5625 31.5741 65.3437 28.0841C69.1197 24.5945 74.2134 22.8966 79.3277 23.4226C86.6402 24.1257 92.2651 30.1986 92.4058 37.5426L93.4422 93.1106L37.8689 92.0742L37.8741 92.0794C30.5252 91.9387 24.4528 86.3138 23.7488 78.996C23.2175 73.871 24.9259 68.7668 28.431 64.9907L28.4322 64.9907Z" fill="black"/>
<path d="M642 116.667H642.219L709.896 115.406L709.891 115.411C719.167 115.234 728.052 111.656 734.855 105.354C741.662 99.0572 745.912 90.4741 746.803 81.2395C747.865 70.5207 744.693 59.8075 737.964 51.3901C731.23 42.9787 721.47 37.5355 710.776 36.2288C709.464 25.5309 704.021 15.7755 695.61 9.04079C687.198 2.30639 676.484 -0.865474 665.76 0.202259C656.531 1.08767 647.948 5.34293 641.646 12.1449C635.343 18.9523 631.765 27.8383 631.593 37.1089L630.333 104.786C630.276 107.917 631.479 110.937 633.677 113.172C635.869 115.406 638.869 116.667 642 116.667L642 116.667ZM654.927 37.5413C655.068 30.1976 660.693 24.1253 668.005 23.4213C673.104 22.9838 678.146 24.7182 681.907 28.1869C685.662 31.6609 687.781 36.5567 687.75 41.6709C686.771 46.6813 687.974 51.874 691.063 55.9363C695.146 59.004 700.334 60.2071 705.344 59.254C710.469 59.1967 715.375 61.3113 718.849 65.0717C722.323 68.8373 724.047 73.8947 723.584 78.9931C722.881 86.3108 716.808 91.9357 709.459 92.0764L653.885 93.1129L654.927 37.5413Z" fill="black"/>
<path d="M364.92 241.053C367.159 243.522 370.337 244.934 373.67 244.934C377.003 244.934 380.18 243.522 382.42 241.053L483.42 126.532C494.795 113.214 501.327 96.444 501.951 78.944C502.575 61.444 497.258 44.2467 486.863 30.1573C473.711 12.204 453.165 1.14133 430.936 0.0533335C409.029 -0.55604 388.009 8.7044 373.671 25.2773C359.359 8.67333 338.316 -0.592 316.405 0.0533335C294.176 1.14188 273.629 12.2044 260.479 30.1573C250.083 44.2453 244.765 61.444 245.391 78.944C246.016 96.444 252.547 113.215 263.921 126.532L364.92 241.053ZM279.108 44.2C287.983 31.7833 302.051 24.1067 317.296 23.3667C332.26 22.9344 346.603 29.3511 356.249 40.7987L364.921 50.632C367.197 53.0331 370.364 54.3924 373.671 54.3924C376.978 54.3924 380.145 53.0331 382.421 50.632L391.093 40.7987C400.749 29.3612 415.082 22.9493 430.046 23.3667C445.292 24.1063 459.358 31.7833 468.234 44.2C475.344 54.0177 478.974 65.9293 478.557 78.0387C478.135 90.1532 473.693 101.784 465.922 111.091L373.671 215.695L281.42 111.091C273.65 101.783 269.207 90.1533 268.785 78.0387C268.368 65.9293 271.999 54.0173 279.108 44.2Z" fill="black"/>
</svg>
