<?xml version="1.0" encoding="UTF-8"?>
<svg width="700pt" height="700pt" version="1.1" viewBox="0 0 700 700" xmlns="http://www.w3.org/2000/svg" xmlns:xlink="http://www.w3.org/1999/xlink">
 <defs>
  <symbol id="v" overflow="visible">
   <path d="m18.766-1.125c-0.96875 0.5-1.9805 0.875-3.0312 1.125-1.043 0.25781-2.1367 0.39062-3.2812 0.39062-3.3984 0-6.0898-0.94531-8.0781-2.8438-1.9922-1.9062-2.9844-4.4844-2.9844-7.7344 0-3.2578 0.99219-5.8359 2.9844-7.7344 1.9883-1.9062 4.6797-2.8594 8.0781-2.8594 1.1445 0 2.2383 0.13281 3.2812 0.39062 1.0508 0.25 2.0625 0.625 3.0312 1.125v4.2188c-0.98047-0.65625-1.9453-1.1406-2.8906-1.4531-0.94922-0.3125-1.9492-0.46875-3-0.46875-1.875 0-3.3516 0.60547-4.4219 1.8125-1.0742 1.1992-1.6094 2.8555-1.6094 4.9688 0 2.1055 0.53516 3.7617 1.6094 4.9688 1.0703 1.1992 2.5469 1.7969 4.4219 1.7969 1.0508 0 2.0508-0.14844 3-0.45312 0.94531-0.3125 1.9102-0.80078 2.8906-1.4688z"/>
  </symbol>
  <symbol id="d" overflow="visible">
   <path d="m13.734-11.141c-0.4375-0.19531-0.87109-0.34375-1.2969-0.4375-0.41797-0.10156-0.83984-0.15625-1.2656-0.15625-1.2617 0-2.2305 0.40625-2.9062 1.2188-0.67969 0.80469-1.0156 1.9531-1.0156 3.4531v7.0625h-4.8906v-15.312h4.8906v2.5156c0.625-1 1.3438-1.7266 2.1562-2.1875 0.82031-0.46875 1.8008-0.70312 2.9375-0.70312 0.16406 0 0.34375 0.011719 0.53125 0.03125 0.19531 0.011719 0.47656 0.039062 0.84375 0.078125z"/>
  </symbol>
  <symbol id="a" overflow="visible">
   <path d="m17.641-7.7031v1.4062h-11.453c0.125 1.1484 0.53906 2.0078 1.25 2.5781 0.70703 0.57422 1.7031 0.85938 2.9844 0.85938 1.0312 0 2.082-0.14844 3.1562-0.45312 1.082-0.3125 2.1914-0.77344 3.3281-1.3906v3.7656c-1.1562 0.4375-2.3125 0.76562-3.4688 0.98438-1.1562 0.22656-2.3125 0.34375-3.4688 0.34375-2.7734 0-4.9297-0.70312-6.4688-2.1094-1.5312-1.4062-2.2969-3.3789-2.2969-5.9219 0-2.5 0.75391-4.4609 2.2656-5.8906 1.5078-1.4375 3.582-2.1562 6.2188-2.1562 2.4062 0 4.332 0.73047 5.7812 2.1875 1.4453 1.4492 2.1719 3.3828 2.1719 5.7969zm-5.0312-1.625c0-0.92578-0.27344-1.6719-0.8125-2.2344-0.54297-0.57031-1.25-0.85938-2.125-0.85938-0.94922 0-1.7188 0.26562-2.3125 0.79688s-0.96484 1.2969-1.1094 2.2969z"/>
  </symbol>
  <symbol id="j" overflow="visible">
   <path d="m9.2188-6.8906c-1.0234 0-1.793 0.17188-2.3125 0.51562-0.51172 0.34375-0.76562 0.85547-0.76562 1.5312 0 0.625 0.20703 1.1172 0.625 1.4688 0.41406 0.34375 0.98828 0.51562 1.7188 0.51562 0.92578 0 1.7031-0.32812 2.3281-0.98438 0.63281-0.66406 0.95312-1.4922 0.95312-2.4844v-0.5625zm7.4688-1.8438v8.7344h-4.9219v-2.2656c-0.65625 0.92969-1.3984 1.6055-2.2188 2.0312-0.82422 0.41406-1.8242 0.625-3 0.625-1.5859 0-2.8711-0.45703-3.8594-1.375-0.99219-0.92578-1.4844-2.1289-1.4844-3.6094 0-1.7891 0.61328-3.1016 1.8438-3.9375 1.2383-0.84375 3.1797-1.2656 5.8281-1.2656h2.8906v-0.39062c0-0.76953-0.30859-1.332-0.92188-1.6875-0.61719-0.36328-1.5703-0.54688-2.8594-0.54688-1.0547 0-2.0312 0.10547-2.9375 0.3125-0.89844 0.21094-1.7305 0.52344-2.5 0.9375v-3.7344c1.0391-0.25 2.0859-0.44141 3.1406-0.57812 1.0625-0.13281 2.125-0.20312 3.1875-0.20312 2.7578 0 4.75 0.54688 5.9688 1.6406 1.2266 1.0859 1.8438 2.8555 1.8438 5.3125z"/>
  </symbol>
  <symbol id="c" overflow="visible">
   <path d="m7.7031-19.656v4.3438h5.0469v3.5h-5.0469v6.5c0 0.71094 0.14062 1.1875 0.42188 1.4375s0.83594 0.375 1.6719 0.375h2.5156v3.5h-4.1875c-1.9375 0-3.3125-0.39844-4.125-1.2031-0.80469-0.8125-1.2031-2.1797-1.2031-4.1094v-6.5h-2.4219v-3.5h2.4219v-4.3438z"/>
  </symbol>
  <symbol id="i" overflow="visible">
   <path d="m12.766-13.078v-8.2031h4.9219v21.281h-4.9219v-2.2188c-0.66797 0.90625-1.4062 1.5703-2.2188 1.9844s-1.7578 0.625-2.8281 0.625c-1.8867 0-3.4336-0.75-4.6406-2.25-1.2109-1.5-1.8125-3.4258-1.8125-5.7812 0-2.3633 0.60156-4.2969 1.8125-5.7969 1.207-1.5 2.7539-2.25 4.6406-2.25 1.0625 0 2 0.21484 2.8125 0.64062 0.82031 0.42969 1.5664 1.0859 2.2344 1.9688zm-3.2188 9.9219c1.0391 0 1.8359-0.37891 2.3906-1.1406 0.55078-0.76953 0.82812-1.8828 0.82812-3.3438 0-1.457-0.27734-2.5664-0.82812-3.3281-0.55469-0.76953-1.3516-1.1562-2.3906-1.1562-1.043 0-1.8398 0.38672-2.3906 1.1562-0.55469 0.76172-0.82812 1.8711-0.82812 3.3281 0 1.4609 0.27344 2.5742 0.82812 3.3438 0.55078 0.76172 1.3477 1.1406 2.3906 1.1406z"/>
  </symbol>
  <symbol id="h" overflow="visible">
   <path d="m10.5-3.1562c1.0508 0 1.8516-0.37891 2.4062-1.1406 0.55078-0.76953 0.82812-1.8828 0.82812-3.3438 0-1.457-0.27734-2.5664-0.82812-3.3281-0.55469-0.76953-1.3555-1.1562-2.4062-1.1562-1.0547 0-1.8594 0.38672-2.4219 1.1562-0.55469 0.77344-0.82812 1.8828-0.82812 3.3281 0 1.4492 0.27344 2.5586 0.82812 3.3281 0.5625 0.77344 1.3672 1.1562 2.4219 1.1562zm-3.25-9.9219c0.67578-0.88281 1.4219-1.5391 2.2344-1.9688 0.82031-0.42578 1.7656-0.64062 2.8281-0.64062 1.8945 0 3.4453 0.75 4.6562 2.25 1.207 1.5 1.8125 3.4336 1.8125 5.7969 0 2.3555-0.60547 4.2812-1.8125 5.7812-1.2109 1.5-2.7617 2.25-4.6562 2.25-1.0625 0-2.0078-0.21094-2.8281-0.625-0.8125-0.42578-1.5586-1.0859-2.2344-1.9844v2.2188h-4.8906v-21.281h4.8906z"/>
  </symbol>
  <symbol id="g" overflow="visible">
   <path d="m0.34375-15.312h4.8906l4.125 10.391 3.5-10.391h4.8906l-6.4375 16.766c-0.64844 1.6953-1.4023 2.8828-2.2656 3.5625-0.86719 0.6875-2 1.0312-3.4062 1.0312h-2.8438v-3.2188h1.5312c0.83203 0 1.4375-0.13672 1.8125-0.40625 0.38281-0.26172 0.67969-0.73047 0.89062-1.4062l0.14062-0.42188z"/>
  </symbol>
  <symbol id="f" overflow="visible">
   <path d="m2.5781-20.406h5.25v16.422h9.25v3.9844h-14.5z"/>
  </symbol>
  <symbol id="e" overflow="visible">
   <path d="m2.3594-21.281h4.8906v21.281h-4.8906z"/>
  </symbol>
  <symbol id="u" overflow="visible">
   <path d="m2.3594-15.312h4.8906v15.312h-4.8906zm0-5.9688h4.8906v4h-4.8906z"/>
  </symbol>
  <symbol id="t" overflow="visible">
   <path d="m14.312-14.828v3.7188c-1.043-0.4375-2.0547-0.76562-3.0312-0.98438-0.98047-0.21875-1.9023-0.32812-2.7656-0.32812-0.92969 0-1.6211 0.11719-2.0781 0.34375-0.44922 0.23047-0.67188 0.58984-0.67188 1.0781 0 0.38672 0.17188 0.68359 0.51562 0.89062 0.34375 0.21094 0.95703 0.36719 1.8438 0.46875l0.85938 0.125c2.5078 0.32422 4.1953 0.85156 5.0625 1.5781 0.86328 0.73047 1.2969 1.8711 1.2969 3.4219 0 1.6367-0.60547 2.8672-1.8125 3.6875-1.1992 0.8125-2.9922 1.2188-5.375 1.2188-1.0234 0-2.0742-0.078125-3.1562-0.23438-1.0742-0.15625-2.1797-0.39453-3.3125-0.71875v-3.7188c0.96875 0.48047 1.9609 0.83984 2.9844 1.0781 1.0312 0.23047 2.0781 0.34375 3.1406 0.34375 0.95703 0 1.6758-0.12891 2.1562-0.39062 0.47656-0.26953 0.71875-0.66406 0.71875-1.1875 0-0.4375-0.16797-0.75781-0.5-0.96875-0.33594-0.21875-0.99609-0.38281-1.9844-0.5l-0.85938-0.10938c-2.1797-0.26953-3.7031-0.77344-4.5781-1.5156-0.875-0.73828-1.3125-1.8594-1.3125-3.3594 0-1.625 0.55078-2.8281 1.6562-3.6094 1.1133-0.78906 2.8203-1.1875 5.125-1.1875 0.89453 0 1.8359 0.074219 2.8281 0.21875 1 0.13672 2.082 0.35156 3.25 0.64062z"/>
  </symbol>
  <symbol id="b" overflow="visible">
   <path d="m9.6406-12.188c-1.0859 0-1.9141 0.39062-2.4844 1.1719-0.57422 0.78125-0.85938 1.9062-0.85938 3.375s0.28516 2.5938 0.85938 3.375c0.57031 0.77344 1.3984 1.1562 2.4844 1.1562 1.0625 0 1.875-0.38281 2.4375-1.1562 0.57031-0.78125 0.85938-1.9062 0.85938-3.375s-0.28906-2.5938-0.85938-3.375c-0.5625-0.78125-1.375-1.1719-2.4375-1.1719zm0-3.5c2.6328 0 4.6914 0.71484 6.1719 2.1406 1.4766 1.418 2.2188 3.3867 2.2188 5.9062 0 2.5117-0.74219 4.4805-2.2188 5.9062-1.4805 1.418-3.5391 2.125-6.1719 2.125-2.6484 0-4.7148-0.70703-6.2031-2.125-1.4922-1.4258-2.2344-3.3945-2.2344-5.9062 0-2.5195 0.74219-4.4883 2.2344-5.9062 1.4883-1.4258 3.5547-2.1406 6.2031-2.1406z"/>
  </symbol>
  <symbol id="s" overflow="visible">
   <path d="m12.422-21.281v3.2188h-2.7031c-0.6875 0-1.1719 0.125-1.4531 0.375-0.27344 0.25-0.40625 0.6875-0.40625 1.3125v1.0625h4.1875v3.5h-4.1875v11.812h-4.8906v-11.812h-2.4375v-3.5h2.4375v-1.0625c0-1.6641 0.46094-2.8984 1.3906-3.7031 0.92578-0.80078 2.3672-1.2031 4.3281-1.2031z"/>
  </symbol>
  <symbol id="r" overflow="visible">
   <path d="m16.547-12.766c0.61328-0.94531 1.3477-1.6719 2.2031-2.1719 0.85156-0.5 1.7891-0.75 2.8125-0.75 1.7578 0 3.0977 0.54688 4.0156 1.6406 0.92578 1.0859 1.3906 2.6562 1.3906 4.7188v9.3281h-4.9219v-7.9844-0.35938c0.007813-0.13281 0.015625-0.32031 0.015625-0.5625 0-1.082-0.16406-1.8633-0.48438-2.3438-0.3125-0.48828-0.82422-0.73438-1.5312-0.73438-0.92969 0-1.6484 0.38672-2.1562 1.1562-0.51172 0.76172-0.77344 1.8672-0.78125 3.3125v7.5156h-4.9219v-7.9844c0-1.6953-0.14844-2.7852-0.4375-3.2656-0.29297-0.48828-0.8125-0.73438-1.5625-0.73438-0.9375 0-1.6641 0.38672-2.1719 1.1562-0.51172 0.76172-0.76562 1.8594-0.76562 3.2969v7.5312h-4.9219v-15.312h4.9219v2.2344c0.60156-0.86328 1.2891-1.5156 2.0625-1.9531 0.78125-0.4375 1.6406-0.65625 2.5781-0.65625 1.0625 0 2 0.25781 2.8125 0.76562 0.8125 0.51172 1.4258 1.2305 1.8438 2.1562z"/>
  </symbol>
  <symbol id="q" overflow="visible">
   <path d="m17.75-9.3281v9.3281h-4.9219v-7.1094c0-1.3438-0.03125-2.2656-0.09375-2.7656s-0.16797-0.86719-0.3125-1.1094c-0.1875-0.3125-0.44922-0.55469-0.78125-0.73438-0.32422-0.17578-0.69531-0.26562-1.1094-0.26562-1.0234 0-1.8242 0.39844-2.4062 1.1875-0.58594 0.78125-0.875 1.8711-0.875 3.2656v7.5312h-4.8906v-21.281h4.8906v8.2031c0.73828-0.88281 1.5195-1.5391 2.3438-1.9688 0.83203-0.42578 1.75-0.64062 2.75-0.64062 1.7695 0 3.1133 0.54688 4.0312 1.6406 0.91406 1.0859 1.375 2.6562 1.375 4.7188z"/>
  </symbol>
  <symbol id="p" overflow="visible">
   <path d="m2.5781-20.406h5.875l7.4219 14v-14h4.9844v20.406h-5.875l-7.4219-14v14h-4.9844z"/>
  </symbol>
  <symbol id="o" overflow="visible">
   <path d="m2.1875-5.9688v-9.3438h4.9219v1.5312c0 0.83594-0.007813 1.875-0.015625 3.125-0.011719 1.25-0.015625 2.0859-0.015625 2.5 0 1.2422 0.03125 2.1328 0.09375 2.6719 0.070313 0.54297 0.17969 0.93359 0.32812 1.1719 0.20703 0.32422 0.47266 0.57422 0.79688 0.75 0.32031 0.16797 0.69141 0.25 1.1094 0.25 1.0195 0 1.8203-0.39062 2.4062-1.1719 0.58203-0.78125 0.875-1.8672 0.875-3.2656v-7.5625h4.8906v15.312h-4.8906v-2.2188c-0.74219 0.89844-1.5234 1.5586-2.3438 1.9844-0.82422 0.41406-1.7344 0.625-2.7344 0.625-1.7617 0-3.1055-0.53906-4.0312-1.625-0.92969-1.082-1.3906-2.6602-1.3906-4.7344z"/>
  </symbol>
  <symbol id="n" overflow="visible">
   <path d="m17.75-9.3281v9.3281h-4.9219v-7.1406c0-1.3203-0.03125-2.2344-0.09375-2.7344s-0.16797-0.86719-0.3125-1.1094c-0.1875-0.3125-0.44922-0.55469-0.78125-0.73438-0.32422-0.17578-0.69531-0.26562-1.1094-0.26562-1.0234 0-1.8242 0.39844-2.4062 1.1875-0.58594 0.78125-0.875 1.8711-0.875 3.2656v7.5312h-4.8906v-15.312h4.8906v2.2344c0.73828-0.88281 1.5195-1.5391 2.3438-1.9688 0.83203-0.42578 1.75-0.64062 2.75-0.64062 1.7695 0 3.1133 0.54688 4.0312 1.6406 0.91406 1.0859 1.375 2.6562 1.375 4.7188z"/>
  </symbol>
  <symbol id="m" overflow="visible">
   <path d="m2.5781-20.406h8.7344c2.5938 0 4.582 0.57812 5.9688 1.7344 1.3945 1.1484 2.0938 2.7891 2.0938 4.9219 0 2.1367-0.69922 3.7812-2.0938 4.9375-1.3867 1.1562-3.375 1.7344-5.9688 1.7344h-3.4844v7.0781h-5.25zm5.25 3.8125v5.7031h2.9219c1.0195 0 1.8047-0.25 2.3594-0.75 0.5625-0.5 0.84375-1.2031 0.84375-2.1094 0-0.91406-0.28125-1.6172-0.84375-2.1094-0.55469-0.48828-1.3398-0.73438-2.3594-0.73438z"/>
  </symbol>
  <symbol id="l" overflow="visible">
   <path d="m2.3594-15.312h4.8906v15.031c0 2.0508-0.49609 3.6172-1.4844 4.7031-0.98047 1.082-2.4062 1.625-4.2812 1.625h-2.4219v-3.2188h0.85938c0.92578 0 1.5625-0.21094 1.9062-0.625 0.35156-0.41797 0.53125-1.2461 0.53125-2.4844zm0-5.9688h4.8906v4h-4.8906z"/>
  </symbol>
  <symbol id="k" overflow="visible">
   <path d="m14.719-14.828v3.9844c-0.65625-0.45703-1.3242-0.79688-2-1.0156-0.66797-0.21875-1.3594-0.32812-2.0781-0.32812-1.3672 0-2.4336 0.40234-3.2031 1.2031-0.76172 0.79297-1.1406 1.9062-1.1406 3.3438 0 1.4297 0.37891 2.543 1.1406 3.3438 0.76953 0.79297 1.8359 1.1875 3.2031 1.1875 0.75781 0 1.4844-0.10938 2.1719-0.32812 0.6875-0.22656 1.3203-0.56641 1.9062-1.0156v4c-0.76172 0.28125-1.5391 0.48828-2.3281 0.625-0.78125 0.14453-1.5742 0.21875-2.375 0.21875-2.7617 0-4.9219-0.70703-6.4844-2.125-1.5547-1.4141-2.3281-3.3828-2.3281-5.9062 0-2.5312 0.77344-4.5039 2.3281-5.9219 1.5625-1.4141 3.7227-2.125 6.4844-2.125 0.80078 0 1.5938 0.074219 2.375 0.21875 0.78125 0.13672 1.5547 0.35156 2.3281 0.64062z"/>
  </symbol>
 </defs>
 <g>
  <path d="m445.1 76.625c-5.1758-4.3008-5.8828-11.98-1.582-17.156s11.98-5.8828 17.156-1.582c3.1133 2.5898 4.5781 6.4023 4.3398 10.156-0.11328 1.7812-0.60547 3.543-1.5156 5.1641-0.35547 0.63672-0.75391 1.2578-1.2383 1.8359-4.3008 5.1719-11.984 5.8828-17.16 1.582zm38.758 44.84c0.65234 1.8164 2.1875 3.1758 4.0703 3.5898 0.39844 0.085937 0.80469 0.13281 1.207 0.13281 1.4883 0 2.9297-0.58984 3.9922-1.6719l2.3945-2.4492-11.82 0.039063c0.042969 0.11719 0.11328 0.23828 0.15625 0.35938zm-86.527 11.391 3.6562 12.48c0.87109 2.9688 3.9805 4.668 6.9492 3.8008l12.48-3.6562c2.9688-0.87109 4.668-3.9805 3.8008-6.9492l-3.6562-12.48c-0.87109-2.9688-3.9805-4.668-6.9492-3.8008l-12.48 3.6562c-2.9688 0.86719-4.668 3.9805-3.8008 6.9492zm-40.375-44.32c-1.043-1.7656-1.0352-3.9648 0.023437-5.7266 13.477-22.492 20.895-42.289 22.684-60.508 0.14844-1.5352 0.92969-2.9453 2.1562-3.8867 1.2188-0.94141 2.7773-1.332 4.3047-1.0938 5.9727 0.96094 11.953 2.2539 17.785 3.8594 2.6367 0.72266 4.3594 3.2422 4.0898 5.957-1.9922 19.984-10.09 40.277-24.762 62.027-1.043 1.5508-2.7891 2.4688-4.6445 2.4688-0.13672 0-0.27734-0.003906-0.42188-0.015624-5.4375-0.40625-10.895-0.51563-16.188-0.32813-2.2031 0.10547-3.9844-0.98437-5.0273-2.7539zm14.512-8.4766c1.418 0.039062 2.8281 0.09375 4.2422 0.17578 11.352-17.41 18.105-33.664 20.535-49.469-2.0547-0.49609-4.1289-0.95312-6.207-1.3633-2.4531 15.758-8.5742 32.449-18.57 50.656zm-42.016 61.711 7.8555 4.6211c2.6641 1.5664 6.0977 0.67969 7.668-1.9883l4.6211-7.8555c1.5664-2.6641 0.67969-6.0977-1.9883-7.668l-7.8555-4.6211c-2.6641-1.5664-6.0977-0.67969-7.668 1.9883l-4.6211 7.8555c-1.5664 2.668-0.67578 6.0977 1.9883 7.668zm150.63-32.539c-0.77344 1.6992-0.69922 3.6992 0.34766 5.3281 0.20312 0.3125 0.35156 0.63672 0.53906 0.94922l20.051-0.0625c2.1172-2.1719 4.1406-4.2227 6.1836-6.3008zm48.656-44.852c-1.8633-0.92188-4.0781-0.74219-5.7734 0.46875-1.3438 0.96875-2.6406 1.9961-3.9453 3.0195l15.84-0.050782c-1.9727-1.2227-4.0078-2.3828-6.1211-3.4375zm13.066 11.113c0.003907-0.73047-0.16797-1.4297-0.42969-2.0898l-29.07 0.089844c-2.2109 1.9883-4.3906 4.1133-6.5703 6.2969l34.086-0.10547c1.2266-1.0508 1.9766-2.5625 1.9844-4.1914zm-52.023 21.828c-1.7344 2.0352-3.5078 4.1328-5.3203 6.293l28.332-0.089843c2.1602-2.1562 4.3086-4.2734 6.4258-6.2969zm27.188-5.6836 8.3789-0.027344c2.4453-2.1992 4.9102-4.3125 7.3594-6.3047l-32.371 0.10156c-1.875 2.0195-3.7734 4.1211-5.6914 6.2969l7.5234-0.023437zm-352.64 8.1289-32.371-2.168c2.2852 2.168 4.4922 4.4297 6.6562 6.7383l30.809 2.0625c-1.6445-2.25-3.3438-4.4609-5.0938-6.6328zm17.824 26.84c-0.34375-0.64062-0.72656-1.2656-1.082-1.9023l-27.441-1.8359c1.5117 2.1641 2.9648 4.3594 4.3633 6.5859l24.43 1.6367c0.50781-1.4492 0.49609-3.0586-0.26953-4.4844zm205.28 86.262c4.3008-5.1758 3.5938-12.855-1.582-17.156-5.1758-4.3008-12.855-3.5938-17.156 1.582-4.3008 5.1758-3.5938 12.855 1.582 17.156 5.1719 4.3008 12.855 3.5898 17.156-1.582zm-213.91-100.58-29.578-1.9805c1.8477 2.1719 3.6328 4.3906 5.3672 6.6523l28.395 1.9023c-1.3438-2.2188-2.7383-4.4102-4.1836-6.5742zm189.04 153.15-7.4688 34.586-1.2461 5.7695-12.551 58.129c-8.4414 26.863-36.52 43.094-66.656 39.703l-30.906 98.113c4.0273 7.5078 9.4141 14.07 16.016 19.5l11.973 9.8555c2.4297 2.0117 3.0938 5.4688 1.5938 8.2266-1.1719 2.1562-3.4219 3.4219-5.7812 3.4219-0.65625 0-1.3203-0.097656-1.9727-0.30469l-94.602-29.801c-2.9766-0.92969-4.9023-3.8672-4.5586-6.9883s2.8672-5.5781 6-5.8359l15.48-1.2148c8.5078-0.66016 16.684-2.9531 24.301-6.8047l30.91-98.109c-26.668-14.477-40.355-43.871-32.043-70.258l39.203-93.379c2.9414-7.0117 11.066-10.438 18.879-7.9688l82.535 26c7.8164 2.4688 12.504 9.9336 10.895 17.359zm-22.48 51.102c-0.61719 0.20703-1.1602 0.49609-1.8047 0.66797-3.4102 0.91797-7.0859 1.3398-10.926 1.3398-16.344 0-35.594-7.625-49.887-16.73-0.42188-0.26953-0.87891-0.52344-1.293-0.79687-16.336-10.742-31.996-4.2266-40.102 0.79687-2.9414 1.8203-4.8633 3.4062-5.4766 3.9375l-9.0469 21.531c-6.8906 21.945 6.2031 47.277 30.641 58.43 2.5742 1.1758 3.8672 4.0859 3.0156 6.7812l-32.434 102.96c-0.83203 2.6562-2.7383 4.9102-5.2227 6.1758-6.793 3.4727-13.965 5.8828-21.406 7.1953l50.973 16.062c-5.3438-5.3477-9.8438-11.434-13.418-18.172-1.3047-2.4648-1.5703-5.3984-0.73437-8.0508l32.434-102.96c0.85156-2.6914 3.5742-4.3516 6.3555-3.8242 26.418 4.8711 51.664-8.3906 58.73-30.82zm11.531-53.469c0.36719-1.6836-1.125-3.6133-3.3203-4.3086l-82.527-26c-2.207-0.68359-4.5273 0.039063-5.1914 1.625l-22.629 53.871c12.152-5.1289 28.438-7.0781 44.383 3.3984 6.3398 4.168 13.074 7.5586 19.707 10.156 12.656 4.9531 24.938 6.8516 33.332 4.5742 3.3828-0.91016 5.9375-2.4219 7.7617-4.5742 0.0625-0.074218 0.12109-0.15625 0.17969-0.23047zm-190.11-127.78c0.6875 1.2031 1.3945 2.3945 2.0469 3.6094 0.78906 1.4648 2.1875 2.5039 3.8164 2.8398 0.37109 0.074218 0.74609 0.11328 1.1172 0.11328 1.2617 0 2.5-0.42969 3.5039-1.2344l5.3203-4.2695zm-8.418-48.188-27.777-1.8594c-0.55469 0.86719-0.95313 1.8203-0.97266 2.8672-0.019531 1.2812 0.50781 2.4453 1.2773 3.4453l33.723 2.2578c-2.0234-2.3008-4.1172-4.5273-6.25-6.7109zm83.449-3.4023c-1.2617-0.83984-2.125-2.1562-2.3984-3.6406-0.27344-1.4922 0.066407-3.0234 0.94141-4.2617 3.7148-5.2266 7.7461-10.32 11.988-15.152 1.8555-2.1094 4.9922-2.5195 7.3242-0.95312 16.766 11.234 30.832 28.453 43 52.633 0.86328 1.7148 0.78906 3.75-0.19531 5.3945-0.6875 1.1484-1.1914 2.2266-1.668 3.2188-1.7461 3.6562-3.9141 8.207-11.234 10.297-0.51172 0.14453-1.0273 0.21484-1.5391 0.21484-1.9688 0-3.8438-1.043-4.8594-2.8164-11.562-20.18-23.16-32.777-41.359-44.934zm11.031-5.9805c15.379 11.051 26.574 23.211 36.977 40.172 0.25781-0.47656 0.53516-1.0625 0.87891-1.7773 0.20703-0.43359 0.41797-0.87891 0.64453-1.3359-9.9258-19.07-21.055-33.172-33.867-42.898-1.582 1.9141-3.1289 3.8633-4.6328 5.8398zm328.07 427.93c0.34375 3.1172-1.582 6.0586-4.5703 6.9961l-94.594 29.801c-0.65234 0.20312-1.3164 0.30078-1.9688 0.30078-2.3555 0-4.6094-1.2734-5.7852-3.4297-1.5-2.7578-0.83203-6.207 1.5859-8.207l11.98-9.8672c6.6016-5.4297 11.988-11.988 16.02-19.5l-30.91-98.113c-30.133 3.4297-58.211-12.812-66.523-39.199l-12.668-58.605-1.2539-5.8086-7.4727-34.574c-1.6016-7.4336 3.0898-14.887 10.91-17.352l82.523-26c7.8359-2.4727 15.941 0.96094 18.879 7.9688l39.031 92.891c8.4805 26.852-5.1992 56.27-31.867 70.742l30.91 98.109c7.625 3.8516 15.793 6.1406 24.305 6.8047l15.453 1.2148c3.1445 0.25 5.6719 2.7031 6.0156 5.8281zm-168.96-199.25c8.3672 2.25 20.645 0.35938 33.301-4.582 6.6445-2.5938 13.387-5.9844 19.734-10.156 15.949-10.488 32.242-8.5273 44.402-3.3906l-22.652-53.883c-0.66797-1.5898-3.0039-2.3125-5.1836-1.625l-82.527 26c-2.1992 0.69141-3.6875 2.625-3.3242 4.3086l8.3203 38.535c0.054688 0.070313 0.10938 0.14062 0.16797 0.20703 1.8164 2.1562 4.375 3.6719 7.7617 4.5859zm139.22 202.43c-7.4375-1.3125-14.613-3.7227-21.41-7.1953-2.4727-1.2578-4.375-3.5117-5.2109-6.1758l-32.441-102.96c-0.84766-2.6953 0.44922-5.6055 3.0195-6.7812 24.434-11.152 37.531-36.48 30.461-58.914l-8.8359-21.016c-0.57031-0.5-2.5078-2.1133-5.5-3.9688-8.1016-5.0234-23.758-11.539-40.113-0.79687-0.41406 0.26953-0.87109 0.52734-1.293 0.79687-14.285 9.1055-33.539 16.73-49.883 16.73-3.832 0-7.5078-0.42188-10.922-1.3398-0.63672-0.17188-1.1797-0.45703-1.793-0.66406l9.7227 45.016c6.9336 21.941 32.188 35.195 58.598 30.32 2.7227-0.53125 5.5 1.125 6.3555 3.8242l32.43 102.95c0.83594 2.6484 0.57422 5.5781-0.72266 8.043-3.5781 6.75-8.0781 12.84-13.43 18.188zm-403.57-431.87c-2.0352-1.7539-5.0469-1.8086-7.1562-0.125l-3.9766 3.1914 15.691 1.0508c-1.5039-1.3945-3.0117-2.7812-4.5586-4.1172zm151.32 75.516c-4.8594-3.7891-11.871-2.918-15.66 1.9414-3.7891 4.8594-2.918 11.871 1.9414 15.66 4.8594 3.7891 11.871 2.918 15.66-1.9414 3.7891-4.8594 2.9219-11.871-1.9414-15.66zm27.734-80.949c4.6211-5.5586 3.8594-13.809-1.6992-18.43-5.5586-4.6211-13.809-3.8594-18.43 1.6992-4.6211 5.5586-3.8594 13.809 1.6992 18.43 5.5625 4.6211 13.812 3.8594 18.43-1.6992z"/>
  <use x="70" y="644" xlink:href="#v"/>
  <use x="90.550781" y="644" xlink:href="#d"/>
  <use x="104.359375" y="644" xlink:href="#a"/>
  <use x="123.347656" y="644" xlink:href="#j"/>
  <use x="142.242188" y="644" xlink:href="#c"/>
  <use x="155.628906" y="644" xlink:href="#a"/>
  <use x="174.617188" y="644" xlink:href="#i"/>
  <use x="204.410156" y="644" xlink:href="#h"/>
  <use x="224.453125" y="644" xlink:href="#g"/>
  <use x="252.453125" y="644" xlink:href="#f"/>
  <use x="270.292969" y="644" xlink:href="#e"/>
  <use x="279.890625" y="644" xlink:href="#u"/>
  <use x="289.488281" y="644" xlink:href="#t"/>
  <use x="306.15625" y="644" xlink:href="#b"/>
  <use x="325.390625" y="644" xlink:href="#e"/>
  <use x="334.988281" y="644" xlink:href="#a"/>
  <use x="70" y="672" xlink:href="#s"/>
  <use x="82.183594" y="672" xlink:href="#d"/>
  <use x="95.992188" y="672" xlink:href="#b"/>
  <use x="115.226562" y="672" xlink:href="#r"/>
  <use x="154.152344" y="672" xlink:href="#c"/>
  <use x="167.535156" y="672" xlink:href="#q"/>
  <use x="187.46875" y="672" xlink:href="#a"/>
  <use x="216.207031" y="672" xlink:href="#p"/>
  <use x="239.640625" y="672" xlink:href="#b"/>
  <use x="258.878906" y="672" xlink:href="#o"/>
  <use x="278.8125" y="672" xlink:href="#n"/>
  <use x="308.492188" y="672" xlink:href="#m"/>
  <use x="329.015625" y="672" xlink:href="#d"/>
  <use x="342.820312" y="672" xlink:href="#b"/>
  <use x="362.058594" y="672" xlink:href="#l"/>
  <use x="371.65625" y="672" xlink:href="#a"/>
  <use x="390.648438" y="672" xlink:href="#k"/>
  <use x="407.242188" y="672" xlink:href="#c"/>
 </g>
</svg>
