<svg width="123" height="113" viewBox="0 0 123 113" fill="none" xmlns="http://www.w3.org/2000/svg">
<g clip-path="url(#clip0_1_2)">
<path d="M10.94 31.01C10.89 30.76 10.91 30.5 10.99 30.27L14.47 19.21C14.63 18.68 15.07 18.31 15.57 18.21L34.27 12.82C34.77 12.68 35.28 12.81 35.64 13.13L44.16 20.67C44.31 20.78 44.43 20.93 44.53 21.09C44.76 21.48 44.79 21.95 44.63 22.37L39.87 35.63C46.19 35.34 52.36 36.63 57.89 39.24C59.99 37.23 62.33 35.44 64.88 33.93C67.61 32.32 70.6 31.01 73.81 30.09C84 27.15 94.42 28.62 103.01 33.37C111.61 38.12 118.4 46.16 121.34 56.36C124.28 66.55 122.81 76.97 118.06 85.56C113.31 94.16 105.27 100.95 95.07 103.89C85.75 106.58 76.25 105.58 68.12 101.76C66.01 103.78 63.66 105.57 61.1 107.08C58.38 108.69 55.4 109.98 52.2 110.91C42.01 113.85 31.59 112.38 23 107.63C14.4 102.88 7.61 94.84 4.67 84.64C1.73 74.45 3.2 64.03 7.95 55.44C11.35 49.28 16.43 44.05 22.79 40.5L11.48 31.9C11.19 31.68 11 31.35 10.94 31.01ZM6.69 31.24L6.53 31.29C6.13 29.94 5.29 28.92 4 28.2C2.71 27.49 1.39 27.32 0.05 27.71L0 27.55C1.34 27.16 2.37 26.32 3.09 25.03C3.8 23.73 3.97 22.42 3.58 21.08L3.74 21.03C4.13 22.37 4.97 23.4 6.26 24.12C7.55 24.83 8.87 25 10.21 24.61L10.26 24.77C8.92 25.16 7.89 26 7.17 27.29C6.46 28.58 6.3 29.9 6.69 31.24ZM17.03 12L16.87 12.05C16.48 10.71 15.64 9.68 14.35 8.96C13.06 8.25 11.74 8.08 10.4 8.47L10.35 8.31C11.69 7.92 12.72 7.08 13.44 5.79C14.15 4.49 14.32 3.18 13.93 1.84L14.09 1.79C14.48 3.13 15.32 4.16 16.61 4.88C17.9 5.6 19.22 5.76 20.56 5.37L20.61 5.53C19.27 5.92 18.24 6.76 17.52 8.05C16.8 9.34 16.64 10.66 17.03 12ZM40.83 10.22L40.67 10.27C40.28 8.93 39.44 7.9 38.15 7.18C36.86 6.47 35.54 6.3 34.2 6.69L34.15 6.53C35.49 6.14 36.52 5.3 37.24 4.01C37.95 2.71 38.12 1.4 37.73 0.06L37.89 0C38.28 1.34 39.12 2.37 40.41 3.09C41.7 3.8 43.02 3.97 44.36 3.58L44.41 3.74C43.07 4.13 42.04 4.97 41.32 6.26C40.61 7.55 40.45 8.87 40.83 10.22ZM60.66 40.68C62.97 42 65.14 43.56 67.14 45.34C68.4 44.34 69.75 43.43 71.19 42.65C72.93 41.7 74.8 40.93 76.79 40.36C84.15 38.24 91.67 39.3 97.88 42.73C104.09 46.16 109 51.97 111.12 59.33C113.24 66.69 112.18 74.21 108.75 80.42C105.32 86.63 99.51 91.54 92.15 93.66C89.07 94.55 85.96 94.88 82.93 94.71C79.79 94.54 76.73 93.82 73.88 92.64C72.09 91.9 70.38 90.97 68.79 89.89C67.2 88.8 65.73 87.55 64.38 86.15C62.86 84.56 61.52 82.78 60.41 80.83C59.33 78.95 58.46 76.9 57.82 74.69C56.89 71.45 56.57 68.19 56.79 65.02C57.01 61.97 57.73 59.01 58.9 56.25C57.31 54.7 55.52 53.38 53.59 52.31C53.22 52.1 52.84 51.91 52.45 51.72C50.68 55.42 49.55 59.43 49.14 63.58C48.72 67.92 49.09 72.4 50.37 76.84C53.08 86.25 59.36 93.67 67.31 98.06C75.26 102.45 84.89 103.81 94.3 101.1C103.71 98.39 111.13 92.11 115.52 84.16C119.91 76.21 121.27 66.58 118.56 57.17C115.85 47.76 109.57 40.34 101.62 35.95C93.67 31.56 84.04 30.2 74.63 32.91C71.69 33.76 68.93 34.96 66.39 36.46C64.32 37.68 62.4 39.1 60.66 40.68ZM69.27 47.38C73.47 51.74 76.7 57.16 78.49 63.38C79.88 68.2 80.28 73.06 79.82 77.76C79.38 82.19 78.18 86.47 76.31 90.43C78.47 91.18 80.75 91.64 83.09 91.77C85.81 91.92 88.59 91.63 91.35 90.83C97.93 88.93 103.11 84.55 106.18 78.99C109.25 73.43 110.2 66.7 108.31 60.11C106.41 53.53 102.03 48.35 96.47 45.27C90.91 42.2 84.18 41.25 77.59 43.14C75.82 43.65 74.15 44.34 72.59 45.19C71.41 45.85 70.3 46.58 69.27 47.38ZM73.6 89.3C75.36 85.61 76.5 81.61 76.9 77.47C77.33 73.12 76.95 68.62 75.67 64.17C72.96 54.76 66.68 47.34 58.73 42.95C51.66 39.05 43.27 37.54 34.89 39.15C33.85 39.38 32.84 39.63 31.84 39.92C30.5 40.31 29.17 40.76 27.88 41.26C20.3 44.42 14.29 50.01 10.52 56.84C6.13 64.79 4.77 74.42 7.48 83.83C10.19 93.24 16.47 100.66 24.42 105.05C32.37 109.44 42 110.8 51.41 108.09C54.34 107.24 57.09 106.04 59.63 104.55C61.71 103.32 63.64 101.9 65.39 100.32C63.08 99 60.91 97.44 58.91 95.66C57.64 96.68 56.28 97.59 54.84 98.37C53.12 99.3 51.26 100.07 49.27 100.64C41.91 102.76 34.39 101.7 28.18 98.27C21.97 94.84 17.06 89.03 14.94 81.67V81.66C12.82 74.3 13.88 66.79 17.31 60.58C20.74 54.37 26.55 49.46 33.91 47.34H33.92C41.28 45.22 48.79 46.28 55 49.71C61.21 53.14 66.12 58.95 68.24 66.31C69.18 69.56 69.49 72.84 69.26 76.01C69.04 79.04 68.32 81.99 67.15 84.74C68.17 85.73 69.27 86.63 70.44 87.43C71.45 88.15 72.51 88.77 73.6 89.3ZM56.78 93.63C52.58 89.27 49.35 83.85 47.56 77.63C46.18 72.83 45.77 67.98 46.22 63.29C46.65 58.84 47.86 54.55 49.73 50.58C45.09 48.96 39.92 48.7 34.83 50.13C34.75 50.16 34.66 50.19 34.57 50.21C28.05 52.13 22.91 56.49 19.86 62.01C16.81 67.53 15.85 74.21 17.7 80.75C17.73 80.83 17.76 80.92 17.78 81.01C19.7 87.53 24.06 92.67 29.58 95.72C35.14 98.79 41.87 99.74 48.46 97.85C50.2 97.35 51.87 96.66 53.44 95.81C54.63 95.17 55.74 94.44 56.78 93.63ZM61.09 58.68C60.34 60.77 59.87 62.97 59.71 65.22C59.51 68.07 59.79 70.99 60.62 73.88C61.18 75.82 61.97 77.66 62.95 79.36C63.55 80.41 64.23 81.41 64.96 82.34C65.7 80.26 66.17 78.08 66.33 75.84C66.54 73.03 66.27 70.14 65.46 67.28C65.43 67.2 65.4 67.11 65.38 67.02C64.47 63.89 62.99 61.09 61.09 58.68ZM27.02 38.48C28.29 37.96 29.6 37.5 30.95 37.11C31.98 36.81 33 36.56 34.03 36.36C34.92 36.16 35.81 35.98 36.71 35.83L40.95 24.02L15.57 31.34L25.68 39.02C26.11 38.83 26.56 38.65 27.02 38.48ZM14.59 28.58L40.31 21.16L34.31 15.85L17.04 20.83L14.59 28.58Z" fill="#FFD700"/>
</g>
<defs>
<clipPath id="clip0_1_2">
<rect width="122.88" height="112.43" fill="white"/>
</clipPath>
</defs>
</svg>
